<?xml version="1.0" encoding="UTF-8"?>
<svg xmlns="http://www.w3.org/2000/svg"
  xml:space="preserve"
  viewBox="0 0 1000 1000">
  <svg xml:space="preserve"
    viewBox="0 0 900 900">
    <path fill="transparent"
      d="M0 0h900v900H0z"/>
    <path d="M280 80h20v20h-20zM300 80h20v20h-20zM320 80h20v20h-20zM400 80h20v20h-20zM500 80h20v20h-20zM520 80h20v20h-20zM540 80h20v20h-20zM560 80h20v20h-20zM600 80h20v20h-20zM620 80h20v20h-20zM280 100h20v20h-20zM320 100h20v20h-20zM420 100h20v20h-20zM480 100h20v20h-20zM580 100h20v20h-20zM600 100h20v20h-20zM620 100h20v20h-20zM640 100h20v20h-20zM240 120h20v20h-20zM280 120h20v20h-20zM300 120h20v20h-20zM380 120h20v20h-20zM540 120h20v20h-20zM560 120h20v20h-20zM580 120h20v20h-20zM600 120h20v20h-20zM240 140h20v20h-20zM280 140h20v20h-20zM300 140h20v20h-20zM320 140h20v20h-20zM400 140h20v20h-20zM420 140h20v20h-20zM440 140h20v20h-20zM520 140h20v20h-20zM620 140h20v20h-20zM240 160h20v20h-20zM260 160h20v20h-20zM320 160h20v20h-20zM340 160h20v20h-20zM360 160h20v20h-20zM400 160h20v20h-20zM420 160h20v20h-20zM480 160h20v20h-20zM500 160h20v20h-20zM520 160h20v20h-20zM600 160h20v20h-20zM640 160h20v20h-20zM240 180h20v20h-20zM300 180h20v20h-20zM420 180h20v20h-20zM480 180h20v20h-20zM520 180h20v20h-20zM580 180h20v20h-20zM240 200h20v20h-20zM280 200h20v20h-20zM320 200h20v20h-20zM360 200h20v20h-20zM400 200h20v20h-20zM440 200h20v20h-20zM480 200h20v20h-20zM520 200h20v20h-20zM560 200h20v20h-20zM600 200h20v20h-20zM640 200h20v20h-20zM240 220h20v20h-20zM280 220h20v20h-20zM300 220h20v20h-20zM360 220h20v20h-20zM380 220h20v20h-20zM420 220h20v20h-20zM440 220h20v20h-20zM460 220h20v20h-20zM480 220h20v20h-20zM500 220h20v20h-20zM540 220h20v20h-20zM580 220h20v20h-20zM80 240h20v20H80zM120 240h20v20h-20zM140 240h20v20h-20zM160 240h20v20h-20zM180 240h20v20h-20zM200 240h20v20h-20zM320 240h20v20h-20zM340 240h20v20h-20zM360 240h20v20h-20zM400 240h20v20h-20zM520 240h20v20h-20zM600 240h20v20h-20zM620 240h20v20h-20zM640 240h20v20h-20zM680 240h20v20h-20zM700 240h20v20h-20zM720 240h20v20h-20zM740 240h20v20h-20zM760 240h20v20h-20zM140 260h20v20h-20zM160 260h20v20h-20zM240 260h20v20h-20zM260 260h20v20h-20zM340 260h20v20h-20zM380 260h20v20h-20zM440 260h20v20h-20zM480 260h20v20h-20zM500 260h20v20h-20zM540 260h20v20h-20zM560 260h20v20h-20zM600 260h20v20h-20zM660 260h20v20h-20zM680 260h20v20h-20zM700 260h20v20h-20zM740 260h20v20h-20zM800 260h20v20h-20zM100 280h20v20h-20zM160 280h20v20h-20zM200 280h20v20h-20zM240 280h20v20h-20zM300 280h20v20h-20zM340 280h20v20h-20zM380 280h20v20h-20zM400 280h20v20h-20zM420 280h20v20h-20zM440 280h20v20h-20zM460 280h20v20h-20zM520 280h20v20h-20zM560 280h20v20h-20zM580 280h20v20h-20zM600 280h20v20h-20zM620 280h20v20h-20zM640 280h20v20h-20zM680 280h20v20h-20zM720 280h20v20h-20zM760 280h20v20h-20zM120 300h20v20h-20zM180 300h20v20h-20zM240 300h20v20h-20zM300 300h20v20h-20zM320 300h20v20h-20zM380 300h20v20h-20zM420 300h20v20h-20zM440 300h20v20h-20zM460 300h20v20h-20zM480 300h20v20h-20zM500 300h20v20h-20zM520 300h20v20h-20zM540 300h20v20h-20zM700 300h20v20h-20zM740 300h20v20h-20zM120 320h20v20h-20zM160 320h20v20h-20zM200 320h20v20h-20zM220 320h20v20h-20zM280 320h20v20h-20zM340 320h20v20h-20zM360 320h20v20h-20zM380 320h20v20h-20zM420 320h20v20h-20zM460 320h20v20h-20zM480 320h20v20h-20zM500 320h20v20h-20zM560 320h20v20h-20zM620 320h20v20h-20zM640 320h20v20h-20zM660 320h20v20h-20zM700 320h20v20h-20zM720 320h20v20h-20zM780 320h20v20h-20zM800 320h20v20h-20zM80 340h20v20H80zM260 340h20v20h-20zM280 340h20v20h-20zM300 340h20v20h-20zM320 340h20v20h-20zM360 340h20v20h-20zM460 340h20v20h-20zM500 340h20v20h-20zM540 340h20v20h-20zM560 340h20v20h-20zM600 340h20v20h-20zM660 340h20v20h-20zM700 340h20v20h-20zM720 340h20v20h-20zM780 340h20v20h-20zM800 340h20v20h-20zM100 360h20v20h-20zM120 360h20v20h-20zM160 360h20v20h-20zM180 360h20v20h-20zM200 360h20v20h-20zM220 360h20v20h-20zM240 360h20v20h-20zM320 360h20v20h-20zM340 360h20v20h-20zM380 360h20v20h-20zM400 360h20v20h-20zM440 360h20v20h-20zM480 360h20v20h-20zM580 360h20v20h-20zM600 360h20v20h-20zM620 360h20v20h-20zM680 360h20v20h-20zM720 360h20v20h-20zM760 360h20v20h-20zM780 360h20v20h-20zM80 380h20v20H80zM100 380h20v20h-20zM120 380h20v20h-20zM180 380h20v20h-20zM240 380h20v20h-20zM280 380h20v20h-20zM340 380h20v20h-20zM360 380h20v20h-20zM460 380h20v20h-20zM480 380h20v20h-20zM520 380h20v20h-20zM540 380h20v20h-20zM640 380h20v20h-20zM660 380h20v20h-20zM80 400h20v20H80zM120 400h20v20h-20zM160 400h20v20h-20zM180 400h20v20h-20zM200 400h20v20h-20zM260 400h20v20h-20zM280 400h20v20h-20zM300 400h20v20h-20zM320 400h20v20h-20zM360 400h20v20h-20zM380 400h20v20h-20zM440 400h20v20h-20zM480 400h20v20h-20zM500 400h20v20h-20zM580 400h20v20h-20zM620 400h20v20h-20zM680 400h20v20h-20zM700 400h20v20h-20zM720 400h20v20h-20zM740 400h20v20h-20zM800 400h20v20h-20zM80 420h20v20H80zM100 420h20v20h-20zM160 420h20v20h-20zM180 420h20v20h-20zM220 420h20v20h-20zM240 420h20v20h-20zM260 420h20v20h-20zM340 420h20v20h-20zM380 420h20v20h-20zM400 420h20v20h-20zM500 420h20v20h-20zM520 420h20v20h-20zM640 420h20v20h-20zM660 420h20v20h-20zM680 420h20v20h-20zM80 440h20v20H80zM120 440h20v20h-20zM200 440h20v20h-20zM220 440h20v20h-20zM260 440h20v20h-20zM320 440h20v20h-20zM360 440h20v20h-20zM420 440h20v20h-20zM440 440h20v20h-20zM480 440h20v20h-20zM520 440h20v20h-20zM580 440h20v20h-20zM600 440h20v20h-20zM620 440h20v20h-20zM640 440h20v20h-20zM660 440h20v20h-20zM680 440h20v20h-20zM720 440h20v20h-20zM740 440h20v20h-20zM760 440h20v20h-20zM780 440h20v20h-20zM800 440h20v20h-20zM80 460h20v20H80zM120 460h20v20h-20zM140 460h20v20h-20zM160 460h20v20h-20zM180 460h20v20h-20zM260 460h20v20h-20zM280 460h20v20h-20zM300 460h20v20h-20zM340 460h20v20h-20zM400 460h20v20h-20zM420 460h20v20h-20zM540 460h20v20h-20zM560 460h20v20h-20zM580 460h20v20h-20zM700 460h20v20h-20zM740 460h20v20h-20zM800 460h20v20h-20zM200 480h20v20h-20zM240 480h20v20h-20zM260 480h20v20h-20zM280 480h20v20h-20zM300 480h20v20h-20zM320 480h20v20h-20zM360 480h20v20h-20zM440 480h20v20h-20zM480 480h20v20h-20zM500 480h20v20h-20zM520 480h20v20h-20zM560 480h20v20h-20zM580 480h20v20h-20zM600 480h20v20h-20zM620 480h20v20h-20zM640 480h20v20h-20zM660 480h20v20h-20zM720 480h20v20h-20zM740 480h20v20h-20zM760 480h20v20h-20zM780 480h20v20h-20zM800 480h20v20h-20zM80 500h20v20H80zM100 500h20v20h-20zM120 500h20v20h-20zM180 500h20v20h-20zM240 500h20v20h-20zM280 500h20v20h-20zM320 500h20v20h-20zM340 500h20v20h-20zM380 500h20v20h-20zM400 500h20v20h-20zM420 500h20v20h-20zM440 500h20v20h-20zM500 500h20v20h-20zM540 500h20v20h-20zM620 500h20v20h-20zM660 500h20v20h-20zM680 500h20v20h-20zM720 500h20v20h-20zM800 500h20v20h-20zM80 520h20v20H80zM100 520h20v20h-20zM180 520h20v20h-20zM200 520h20v20h-20zM220 520h20v20h-20zM240 520h20v20h-20zM280 520h20v20h-20zM300 520h20v20h-20zM320 520h20v20h-20zM380 520h20v20h-20zM400 520h20v20h-20zM420 520h20v20h-20zM460 520h20v20h-20zM540 520h20v20h-20zM560 520h20v20h-20zM580 520h20v20h-20zM600 520h20v20h-20zM660 520h20v20h-20zM680 520h20v20h-20zM700 520h20v20h-20zM720 520h20v20h-20zM760 520h20v20h-20zM780 520h20v20h-20zM800 520h20v20h-20zM80 540h20v20H80zM180 540h20v20h-20zM220 540h20v20h-20zM240 540h20v20h-20zM260 540h20v20h-20zM300 540h20v20h-20zM320 540h20v20h-20zM360 540h20v20h-20zM420 540h20v20h-20zM440 540h20v20h-20zM460 540h20v20h-20zM480 540h20v20h-20zM500 540h20v20h-20zM520 540h20v20h-20zM540 540h20v20h-20zM560 540h20v20h-20zM640 540h20v20h-20zM80 560h20v20H80zM120 560h20v20h-20zM140 560h20v20h-20zM180 560h20v20h-20zM200 560h20v20h-20zM240 560h20v20h-20zM260 560h20v20h-20zM280 560h20v20h-20zM320 560h20v20h-20zM360 560h20v20h-20zM380 560h20v20h-20zM400 560h20v20h-20zM560 560h20v20h-20zM600 560h20v20h-20zM620 560h20v20h-20zM680 560h20v20h-20zM700 560h20v20h-20zM740 560h20v20h-20zM780 560h20v20h-20zM800 560h20v20h-20zM80 580h20v20H80zM140 580h20v20h-20zM280 580h20v20h-20zM300 580h20v20h-20zM320 580h20v20h-20zM340 580h20v20h-20zM380 580h20v20h-20zM440 580h20v20h-20zM480 580h20v20h-20zM500 580h20v20h-20zM540 580h20v20h-20zM560 580h20v20h-20zM600 580h20v20h-20zM700 580h20v20h-20zM720 580h20v20h-20zM740 580h20v20h-20zM800 580h20v20h-20zM80 600h20v20H80zM200 600h20v20h-20zM220 600h20v20h-20zM240 600h20v20h-20zM320 600h20v20h-20zM340 600h20v20h-20zM360 600h20v20h-20zM380 600h20v20h-20zM400 600h20v20h-20zM420 600h20v20h-20zM440 600h20v20h-20zM460 600h20v20h-20zM520 600h20v20h-20zM560 600h20v20h-20zM580 600h20v20h-20zM600 600h20v20h-20zM620 600h20v20h-20zM660 600h20v20h-20zM680 600h20v20h-20zM720 600h20v20h-20zM760 600h20v20h-20zM780 600h20v20h-20zM800 600h20v20h-20zM80 620h20v20H80zM120 620h20v20h-20zM260 620h20v20h-20zM300 620h20v20h-20zM320 620h20v20h-20zM360 620h20v20h-20zM380 620h20v20h-20zM460 620h20v20h-20zM480 620h20v20h-20zM500 620h20v20h-20zM540 620h20v20h-20zM640 620h20v20h-20zM660 620h20v20h-20zM740 620h20v20h-20zM80 640h20v20H80zM140 640h20v20h-20zM200 640h20v20h-20zM220 640h20v20h-20zM280 640h20v20h-20zM300 640h20v20h-20zM380 640h20v20h-20zM400 640h20v20h-20zM460 640h20v20h-20zM500 640h20v20h-20zM560 640h20v20h-20zM600 640h20v20h-20zM620 640h20v20h-20zM640 640h20v20h-20zM660 640h20v20h-20zM680 640h20v20h-20zM700 640h20v20h-20zM720 640h20v20h-20zM760 640h20v20h-20zM240 660h20v20h-20zM260 660h20v20h-20zM300 660h20v20h-20zM320 660h20v20h-20zM360 660h20v20h-20zM440 660h20v20h-20zM480 660h20v20h-20zM500 660h20v20h-20zM520 660h20v20h-20zM560 660h20v20h-20zM640 660h20v20h-20zM720 660h20v20h-20zM780 660h20v20h-20zM800 660h20v20h-20zM320 680h20v20h-20zM360 680h20v20h-20zM380 680h20v20h-20zM440 680h20v20h-20zM460 680h20v20h-20zM540 680h20v20h-20zM580 680h20v20h-20zM640 680h20v20h-20zM680 680h20v20h-20zM720 680h20v20h-20zM760 680h20v20h-20zM800 680h20v20h-20zM240 700h20v20h-20zM260 700h20v20h-20zM280 700h20v20h-20zM320 700h20v20h-20zM400 700h20v20h-20zM460 700h20v20h-20zM480 700h20v20h-20zM520 700h20v20h-20zM540 700h20v20h-20zM600 700h20v20h-20zM620 700h20v20h-20zM640 700h20v20h-20zM720 700h20v20h-20zM740 700h20v20h-20zM240 720h20v20h-20zM280 720h20v20h-20zM320 720h20v20h-20zM340 720h20v20h-20zM380 720h20v20h-20zM440 720h20v20h-20zM500 720h20v20h-20zM580 720h20v20h-20zM620 720h20v20h-20zM640 720h20v20h-20zM660 720h20v20h-20zM680 720h20v20h-20zM700 720h20v20h-20zM720 720h20v20h-20zM740 720h20v20h-20zM780 720h20v20h-20zM800 720h20v20h-20zM240 740h20v20h-20zM260 740h20v20h-20zM280 740h20v20h-20zM300 740h20v20h-20zM320 740h20v20h-20zM340 740h20v20h-20zM380 740h20v20h-20zM400 740h20v20h-20zM500 740h20v20h-20zM520 740h20v20h-20zM560 740h20v20h-20zM640 740h20v20h-20zM660 740h20v20h-20zM680 740h20v20h-20zM700 740h20v20h-20zM720 740h20v20h-20zM740 740h20v20h-20zM780 740h20v20h-20zM800 740h20v20h-20zM240 760h20v20h-20zM300 760h20v20h-20zM420 760h20v20h-20zM440 760h20v20h-20zM520 760h20v20h-20zM540 760h20v20h-20zM580 760h20v20h-20zM600 760h20v20h-20zM660 760h20v20h-20zM680 760h20v20h-20zM760 760h20v20h-20zM800 760h20v20h-20zM260 780h20v20h-20zM340 780h20v20h-20zM400 780h20v20h-20zM520 780h20v20h-20zM540 780h20v20h-20zM560 780h20v20h-20zM680 780h20v20h-20zM700 780h20v20h-20zM720 780h20v20h-20zM740 780h20v20h-20zM780 780h20v20h-20zM240 800h20v20h-20zM260 800h20v20h-20zM280 800h20v20h-20zM320 800h20v20h-20zM340 800h20v20h-20zM420 800h20v20h-20zM440 800h20v20h-20zM480 800h20v20h-20zM500 800h20v20h-20zM600 800h20v20h-20zM640 800h20v20h-20zM700 800h20v20h-20zM740 800h20v20h-20zM780 800h20v20h-20zM800 800h20v20h-20z"
      shape-rendering="crispEdges"/>
    <path fill-rule="evenodd"
      d="M80 80h140v140H80Zm20 20h100v100H100ZM680 80h140v140H680Zm20 20h100v100H700Z"
      shape-rendering="crispEdges"/>
    <path d="M120 120h60v60h-60zM720 120h60v60h-60z"
      shape-rendering="crispEdges"/>
    <path fill-rule="evenodd"
      d="M80 680h140v140H80Zm20 20h100v100H100Z"
      shape-rendering="crispEdges"/>
    <path d="M120 720h60v60h-60z"
      shape-rendering="crispEdges"/>
  </svg>
</svg>
