<svg
  viewBox="0 0 80 80"
  fill="none"
  xmlns="http://www.w3.org/2000/svg">
  <path d="M33.3384 68.6705C34.4059 68.9239 35.1647 69.4632 35.615 70.2883C36.0652 71.1135 36.1531 72.1107 35.8787 73.2799L34.3196 79.9212L33.0901 79.6294L34.6492 72.9881C34.8471 72.1448 34.812 71.4586 34.5438 70.9295C34.266 70.3982 33.7698 70.0477 33.0549 69.878C32.3401 69.7084 31.7451 69.7998 31.2699 70.1525C30.7852 70.5028 30.4438 71.0997 30.2458 71.943L28.6867 78.5843L27.4572 78.2925L29.0163 71.6512C29.2908 70.482 29.8129 69.6296 30.5826 69.0939C31.3523 68.5583 32.2709 68.4172 33.3384 68.6705Z"
    fill="#0B1215"/>
  <path d="M29.1002 67.776L28.5198 68.8708L26.2254 67.6411L22.4803 74.7056L24.7748 75.9353L24.1943 77.0302L18.4907 73.9732L19.0711 72.8783L21.3655 74.1081L25.1106 67.0436L22.8162 65.8138L23.3966 64.719L29.1002 67.776Z"
    fill="#0B1215"/>
  <path d="M16.9191 58.7013L8.13646 64.3573L6.80548 62.2677C6.31956 61.5048 6.07021 60.73 6.05741 59.9431C6.03108 59.1532 6.25007 58.3924 6.71437 57.6608C7.16514 56.9261 7.86059 56.2561 8.80069 55.6507C9.7408 55.0452 10.6369 54.6903 11.4891 54.5859C12.336 54.4731 13.1108 54.5939 13.8133 54.9483C14.5106 55.2944 15.1022 55.8489 15.5881 56.6118L16.9191 58.7013ZM15.1986 58.3008L14.5886 57.3431C14.0393 56.4808 13.3379 55.9912 12.4843 55.8744C11.6172 55.7546 10.627 56.0531 9.51372 56.7701C8.40044 57.487 7.71658 58.2665 7.46215 59.1086C7.19419 59.9477 7.33486 60.7984 7.88416 61.6607L8.49419 62.6184L15.1986 58.3008Z"
    fill="#0B1215"/>
  <path d="M12.9835 52.2157L3.05573 55.4292L1.11119 49.3554L2.28575 48.9752L3.84317 53.8399L7.04523 52.8034L5.54182 48.1075L6.68841 47.7364L8.19182 52.4323L11.4218 51.3868L9.82841 46.4097L11.003 46.0295L12.9835 52.2157Z"
    fill="#0B1215"/>
  <path d="M10.8794 41.6544C10.9197 42.3918 10.8039 43.054 10.532 43.641C10.2601 44.228 9.86951 44.7081 9.36031 45.0815C8.84133 45.4553 8.23144 45.6912 7.53063 45.7891L7.37003 44.4667C7.88451 44.3692 8.31647 44.1974 8.66589 43.9513C9.01478 43.6953 9.27217 43.3803 9.43805 43.0062C9.6034 42.6223 9.67264 42.1846 9.64575 41.693C9.61886 41.2014 9.53761 40.7917 9.40199 40.4639C9.25659 40.1366 9.06198 39.8959 8.81816 39.7418C8.56402 39.5783 8.27073 39.5058 7.93827 39.5242C7.60581 39.5425 7.32166 39.6371 7.08581 39.808C6.83964 39.9695 6.62056 40.2676 6.42856 40.7023C6.23603 41.1271 6.04963 41.7538 5.86936 42.5823C5.70381 43.3212 5.51118 43.9235 5.29146 44.3893C5.07121 44.8453 4.79072 45.1862 4.45 45.4122C4.10874 45.6283 3.67899 45.7506 3.16074 45.7793C2.57405 45.8117 2.05317 45.7025 1.59809 45.4515C1.1327 45.1913 0.763527 44.8074 0.490571 44.2998C0.207838 43.7927 0.0468437 43.1804 0.0075878 42.4626C-0.031668 41.7449 0.0813951 41.1223 0.346777 40.5948C0.602381 40.0679 0.971461 39.6431 1.45402 39.3206C1.93603 38.9882 2.49268 38.7652 3.12396 38.6514L3.28456 39.9738C2.86733 40.056 2.50248 40.1995 2.19001 40.4041C1.86777 40.6093 1.62263 40.8793 1.45459 41.214C1.28655 41.5487 1.21544 41.9521 1.24125 42.424C1.27674 43.0729 1.46143 43.5804 1.7953 43.9466C2.1194 44.3133 2.53079 44.4828 3.02948 44.4552C3.35216 44.4374 3.61729 44.3537 3.82488 44.2042C4.02216 44.0453 4.19396 43.7794 4.34029 43.4064C4.47685 43.034 4.62 42.5133 4.76976 41.8443C4.95765 40.9759 5.18456 40.2829 5.45048 39.7653C5.71586 39.2378 6.04798 38.8545 6.44683 38.6155C6.83537 38.3672 7.31809 38.2271 7.89501 38.1952C8.44259 38.1649 8.93494 38.2906 9.37207 38.5721C9.80921 38.8537 10.1599 39.2583 10.4242 39.7861C10.6884 40.3139 10.8402 40.9366 10.8794 41.6544Z"
    fill="#0B1215"/>
  <path d="M10.5427 37.4621L9.33343 37.2154L9.85051 34.6533L2.04787 33.0612L1.53079 35.6233L0.321524 35.3765L1.60691 29.0075L2.81618 29.2542L2.2991 31.8163L10.1017 33.4084L10.6188 30.8463L11.8281 31.093L10.5427 37.4621Z"
    fill="#0B1215"/>
  <path d="M13.8391 27.4558C13.4952 28.1083 13.0106 28.5968 12.3853 28.9211C11.7559 29.2321 11.0085 29.3465 10.143 29.2642C9.26893 29.1774 8.30403 28.8527 7.24834 28.2903C6.25322 27.76 5.46763 27.1688 4.89156 26.5164C4.32007 25.8553 3.9749 25.1643 3.85603 24.4435C3.72852 23.7181 3.85505 22.9943 4.23562 22.2721C4.53366 21.7066 4.92279 21.2731 5.40299 20.9718C5.88778 20.6618 6.43311 20.4787 7.03897 20.4226C7.63618 20.3619 8.25906 20.4208 8.9076 20.5992L8.36647 21.8153C7.71741 21.6589 7.11946 21.6579 6.57262 21.8123C6.03036 21.958 5.61479 22.3049 5.32592 22.853C5.07373 23.3316 5.00533 23.8189 5.12071 24.315C5.22745 24.8065 5.51389 25.2934 5.98006 25.7758C6.44216 26.2449 7.07126 26.6915 7.86735 27.1157C8.65479 27.5352 9.37355 27.8012 10.0236 27.9135C10.6737 28.0259 11.2353 27.9907 11.7083 27.8082C12.1773 27.6123 12.5425 27.2664 12.8038 26.7704C13.0377 26.3267 13.1246 25.8883 13.0647 25.4552C13.0007 25.0088 12.8135 24.5859 12.5031 24.1865C12.1841 23.7824 11.7652 23.4311 11.2465 23.1325L10.0773 25.3512L9.01295 24.7841L10.7324 21.5213L15.3922 24.004L14.8419 25.0481L12.6338 23.9385L12.9027 23.6806C13.2798 24.0375 13.5842 24.417 13.8156 24.8189C14.0517 25.2121 14.1799 25.6314 14.2001 26.0768C14.2162 26.5089 14.0959 26.9685 13.8391 27.4558Z"
    fill="#0B1215"/>
  <path d="M16.4683 22.0937L9.22727 14.5462L10.5171 13.2952L19.4228 17.2167L13.1812 10.711L14.0904 9.8291L21.3314 17.3765L20.0416 18.6276L11.1359 14.7061L17.3775 21.2118L16.4683 22.0937Z"
    fill="#0B1215"/>
  <path d="M33.4141 11.5691C32.3447 11.8141 31.4273 11.6658 30.6617 11.1242C29.8961 10.5825 29.3806 9.72608 29.1152 8.5548L27.6073 1.90154L28.839 1.61932L30.3469 8.27258C30.5383 9.11744 30.8703 9.71802 31.3428 10.0743C31.8248 10.4285 32.4239 10.5235 33.14 10.3594C33.8561 10.1953 34.3503 9.84979 34.6226 9.32283C34.9044 8.79369 34.9496 8.10669 34.7581 7.26183L33.2503 0.608569L34.482 0.326347L35.9899 6.97961C36.2553 8.15089 36.1597 9.14737 35.7031 9.96903C35.2465 10.7907 34.4835 11.324 33.4141 11.5691Z"
    fill="#0B1215"/>
  <path d="M37.1839 10.4798L40.2261 5.30026L37.5698 0L39.038 0.0463279L41.065 4.32186L43.3546 0.182532L44.7935 0.227933L41.8114 5.36505L44.5251 10.7115L43.0568 10.6651L40.973 6.32869L38.6228 10.5252L37.1839 10.4798Z"
    fill="#0B1215"/>
  <path d="M51.72 12.7314L59.845 5.42331L61.3015 6.31253L58.6008 16.9322L57.4456 16.227L59.9786 6.85268L52.8751 13.4367L51.72 12.7314ZM54.6286 11.0167L55.6457 10.1861L59.0359 12.2559L58.7721 13.5464L54.6286 11.0167Z"
    fill="#0B1215"/>
  <path d="M60.8892 19.7056C60.1255 18.9141 59.7749 18.0488 59.8375 17.1096C59.9002 16.1705 60.3602 15.2827 61.2177 14.4462L66.0887 9.69467L66.9683 10.6064L62.0974 15.3579C61.4789 15.9613 61.1409 16.5585 61.0835 17.1495C61.033 17.7476 61.2634 18.3117 61.7748 18.8417C62.2862 19.3718 62.8366 19.6169 63.4258 19.5771C64.0219 19.5444 64.6292 19.2264 65.2478 18.623L70.1187 13.8715L70.9983 14.7832L66.1274 19.5347C65.2699 20.3712 64.3734 20.8067 63.438 20.8412C62.5025 20.8757 61.6529 20.4972 60.8892 19.7056Z"
    fill="#0B1215"/>
  <path d="M64.0534 22.8835L73.1436 17.7425L74.3534 19.9052C74.7951 20.6948 74.9999 21.4827 74.9679 22.2691C74.9492 23.0592 74.6873 23.8061 74.1821 24.5098C73.6902 25.2173 72.9577 25.8462 71.9847 26.3965C71.0117 26.9468 70.0968 27.2496 69.2401 27.3048C68.3881 27.3686 67.6216 27.2034 66.9403 26.8092C66.2639 26.4235 65.7049 25.8359 65.2632 25.0463L64.0534 22.8835ZM65.7481 23.3824L66.3027 24.3737C66.8019 25.2662 67.4743 25.7954 68.3199 25.9612C69.1787 26.1307 70.1843 25.8896 71.3366 25.2379C72.4889 24.5862 73.216 23.8474 73.5179 23.0213C73.8332 22.1991 73.7412 21.3417 73.2419 20.4491L72.6874 19.4578L65.7481 23.3824Z"
    fill="#0B1215"/>
  <path d="M67.6178 29.5215L68.8067 29.1896L69.5023 31.7087L77.1738 29.5671L76.4782 27.048L77.6672 26.7161L79.3962 32.9781L78.2073 33.31L77.5117 30.791L69.8402 32.9326L70.5358 35.4516L69.3469 35.7835L67.6178 29.5215Z"
    fill="#0B1215"/>
  <path d="M69.3925 38.6558L78.58 38.2669L78.4459 35.0646L79.6787 35.0124L80 42.6861L78.7672 42.7383L78.6331 39.536L69.4456 39.9249L69.3925 38.6558Z"
    fill="#0B1215"/>
  <path d="M68.2072 51.5973L76.3506 53.2894L76.3003 53.3961L67.9383 49.4094L68.4796 48.2617L77.9034 52.7546L77.0852 54.4896L68.4527 52.6624L68.7044 52.1286L75.5747 57.6926L74.7566 59.4276L65.3328 54.9346L65.874 53.7869L74.236 57.7736L74.1856 57.8804L67.7289 52.6115L68.2072 51.5973Z"
    fill="#0B1215"/>
  <path d="M61.7225 59.4376C62.2317 58.9054 62.8313 58.57 63.5212 58.4312C64.2114 58.3064 64.9613 58.4033 65.7708 58.7218C66.5874 59.0472 67.4262 59.6263 68.2871 60.4592C69.0987 61.2444 69.6921 62.0302 70.0673 62.8168C70.4358 63.6105 70.5785 64.3703 70.4955 65.0962C70.4195 65.8289 70.0998 66.4897 69.5362 67.0787C69.0949 67.5399 68.6021 67.8489 68.058 68.0057C67.5071 68.1696 66.9327 68.1947 66.3349 68.081C65.7441 67.974 65.1614 67.7451 64.5867 67.3941L65.4398 66.3747C66.021 66.7047 66.5956 66.8711 67.1636 66.874C67.7248 66.884 68.2193 66.6655 68.647 66.2185C69.0205 65.8282 69.2196 65.3786 69.2445 64.8698C69.2764 64.3678 69.1343 63.8204 68.8182 63.2276C68.5023 62.6487 68.0198 62.0453 67.3705 61.4172C66.7283 60.7959 66.1101 60.3413 65.5159 60.0534C64.9216 59.7655 64.3722 59.6438 63.8674 59.6885C63.3629 59.747 62.9172 59.9785 62.5302 60.383C62.1839 60.7448 61.9803 61.1423 61.9193 61.5752C61.8587 62.0221 61.9229 62.4805 62.112 62.9504C62.3081 63.4271 62.6147 63.8807 63.0316 64.3114L64.7629 62.5019L65.631 63.3417L63.0848 66.0026L59.2846 62.3262L60.0994 61.4747L61.9185 63.1526L61.5894 63.3261C61.3245 62.8786 61.1358 62.4296 61.0233 61.9791C60.9039 61.5357 60.8955 61.0972 60.998 60.6634C61.1008 60.2436 61.3423 59.835 61.7225 59.4376Z"
    fill="#0B1215"/>
  <path d="M55.5671 66.5092L61.165 72.6921L61.0619 72.7487L56.6289 64.5805L57.7379 63.9721L62.7337 73.1775L61.0574 74.0973L55.1429 67.516L55.6587 67.233L57.9628 75.7953L56.2865 76.7151L51.2906 67.5096L52.3995 66.9012L56.8325 75.0694L56.7293 75.126L54.5872 67.0469L55.5671 66.5092Z"
    fill="#0B1215"/>
  <path d="M47.2849 68.7702L49.3759 77.7741L52.48 77.0453L52.7606 78.2534L45.3222 80L45.0417 78.7918L48.1457 78.063L46.0547 69.0591L47.2849 68.7702Z"
    fill="#0B1215"/>
  <circle cx="40"
    cy="40"
    r="4"
    fill="#2448FF"/>
</svg>
